<mxfile host="Electron" modified="2024-03-22T10:27:39.187Z" agent="Mozilla/5.0 (X11; Linux x86_64) AppleWebKit/537.36 (KHTML, like Gecko) draw.io/24.0.4 Chrome/120.0.6099.109 Electron/28.1.0 Safari/537.36" etag="rnzDzG4emsVVNOdhkJsw" version="24.0.4" type="device">
  <diagram name="Page-1" id="HJFAk_hg7t-1f92RXwt0">
    <mxGraphModel dx="1434" dy="843" grid="1" gridSize="10" guides="1" tooltips="1" connect="1" arrows="1" fold="1" page="1" pageScale="1" pageWidth="827" pageHeight="1169" math="0" shadow="0">
      <root>
        <mxCell id="0" />
        <mxCell id="1" parent="0" />
        <mxCell id="1X_Ou-ZfoOHERnp9HSPD-5" style="edgeStyle=orthogonalEdgeStyle;rounded=0;orthogonalLoop=1;jettySize=auto;html=1;exitX=1;exitY=0.5;exitDx=0;exitDy=0;entryX=0;entryY=0.5;entryDx=0;entryDy=0;" parent="1" source="uvaL3Q8KecOu17S8fbjV-1" target="1X_Ou-ZfoOHERnp9HSPD-3" edge="1">
          <mxGeometry relative="1" as="geometry" />
        </mxCell>
        <mxCell id="uvaL3Q8KecOu17S8fbjV-1" value="" style="rounded=0;whiteSpace=wrap;html=1;" parent="1" vertex="1">
          <mxGeometry x="20" y="20" width="200" height="100" as="geometry" />
        </mxCell>
        <mxCell id="uvaL3Q8KecOu17S8fbjV-2" value="Welcoming screen&amp;nbsp;" style="text;html=1;align=center;verticalAlign=middle;whiteSpace=wrap;rounded=0;" parent="1" vertex="1">
          <mxGeometry x="90" y="55" width="60" height="30" as="geometry" />
        </mxCell>
        <mxCell id="uvaL3Q8KecOu17S8fbjV-15" style="edgeStyle=orthogonalEdgeStyle;rounded=0;orthogonalLoop=1;jettySize=auto;html=1;exitX=0.5;exitY=1;exitDx=0;exitDy=0;" parent="1" source="uvaL3Q8KecOu17S8fbjV-4" target="uvaL3Q8KecOu17S8fbjV-14" edge="1">
          <mxGeometry relative="1" as="geometry" />
        </mxCell>
        <mxCell id="uvaL3Q8KecOu17S8fbjV-16" value="Change" style="edgeLabel;html=1;align=center;verticalAlign=middle;resizable=0;points=[];" parent="uvaL3Q8KecOu17S8fbjV-15" vertex="1" connectable="0">
          <mxGeometry x="-0.025" y="-2" relative="1" as="geometry">
            <mxPoint as="offset" />
          </mxGeometry>
        </mxCell>
        <mxCell id="uvaL3Q8KecOu17S8fbjV-32" value="0" style="edgeLabel;html=1;align=center;verticalAlign=middle;resizable=0;points=[];" parent="uvaL3Q8KecOu17S8fbjV-15" vertex="1" connectable="0">
          <mxGeometry x="-0.6571" y="-3" relative="1" as="geometry">
            <mxPoint as="offset" />
          </mxGeometry>
        </mxCell>
        <mxCell id="uvaL3Q8KecOu17S8fbjV-4" value="Pre-Quiz Info&lt;div&gt;&lt;br&gt;&lt;/div&gt;" style="rounded=0;whiteSpace=wrap;html=1;" parent="1" vertex="1">
          <mxGeometry x="340" y="260" width="200" height="100" as="geometry" />
        </mxCell>
        <mxCell id="uvaL3Q8KecOu17S8fbjV-10" style="edgeStyle=orthogonalEdgeStyle;rounded=0;orthogonalLoop=1;jettySize=auto;html=1;exitX=0.5;exitY=1;exitDx=0;exitDy=0;" parent="1" source="uvaL3Q8KecOu17S8fbjV-6" target="uvaL3Q8KecOu17S8fbjV-9" edge="1">
          <mxGeometry relative="1" as="geometry" />
        </mxCell>
        <mxCell id="uvaL3Q8KecOu17S8fbjV-6" value="QuestionWindow&amp;nbsp;" style="rounded=0;whiteSpace=wrap;html=1;" parent="1" vertex="1">
          <mxGeometry x="10" y="450" width="200" height="100" as="geometry" />
        </mxCell>
        <mxCell id="uvaL3Q8KecOu17S8fbjV-7" style="edgeStyle=orthogonalEdgeStyle;rounded=0;orthogonalLoop=1;jettySize=auto;html=1;exitX=0;exitY=0.5;exitDx=0;exitDy=0;entryX=0.455;entryY=-0.03;entryDx=0;entryDy=0;entryPerimeter=0;" parent="1" source="uvaL3Q8KecOu17S8fbjV-4" target="uvaL3Q8KecOu17S8fbjV-6" edge="1">
          <mxGeometry relative="1" as="geometry" />
        </mxCell>
        <mxCell id="uvaL3Q8KecOu17S8fbjV-8" value="&lt;font style=&quot;font-size: 12px;&quot;&gt;Start&lt;/font&gt;" style="edgeLabel;html=1;align=center;verticalAlign=middle;resizable=0;points=[];" parent="uvaL3Q8KecOu17S8fbjV-7" vertex="1" connectable="0">
          <mxGeometry x="-0.1739" y="-2" relative="1" as="geometry">
            <mxPoint as="offset" />
          </mxGeometry>
        </mxCell>
        <mxCell id="uvaL3Q8KecOu17S8fbjV-31" value="1" style="edgeLabel;html=1;align=center;verticalAlign=middle;resizable=0;points=[];" parent="uvaL3Q8KecOu17S8fbjV-7" vertex="1" connectable="0">
          <mxGeometry x="-0.3883" y="2" relative="1" as="geometry">
            <mxPoint as="offset" />
          </mxGeometry>
        </mxCell>
        <mxCell id="uvaL3Q8KecOu17S8fbjV-11" style="edgeStyle=orthogonalEdgeStyle;rounded=0;orthogonalLoop=1;jettySize=auto;html=1;exitX=1;exitY=0.5;exitDx=0;exitDy=0;entryX=1;entryY=0.5;entryDx=0;entryDy=0;" parent="1" source="uvaL3Q8KecOu17S8fbjV-9" target="uvaL3Q8KecOu17S8fbjV-6" edge="1">
          <mxGeometry relative="1" as="geometry">
            <Array as="points">
              <mxPoint x="270" y="675" />
              <mxPoint x="270" y="500" />
            </Array>
          </mxGeometry>
        </mxCell>
        <mxCell id="uvaL3Q8KecOu17S8fbjV-13" style="edgeStyle=orthogonalEdgeStyle;rounded=0;orthogonalLoop=1;jettySize=auto;html=1;exitX=0.5;exitY=1;exitDx=0;exitDy=0;entryX=0.5;entryY=0;entryDx=0;entryDy=0;" parent="1" source="uvaL3Q8KecOu17S8fbjV-9" target="uvaL3Q8KecOu17S8fbjV-12" edge="1">
          <mxGeometry relative="1" as="geometry" />
        </mxCell>
        <mxCell id="uvaL3Q8KecOu17S8fbjV-9" value="Question Feedback&amp;nbsp;" style="rounded=0;whiteSpace=wrap;html=1;" parent="1" vertex="1">
          <mxGeometry x="10" y="625" width="200" height="100" as="geometry" />
        </mxCell>
        <mxCell id="uvaL3Q8KecOu17S8fbjV-12" value="Quiz Feedback" style="rounded=0;whiteSpace=wrap;html=1;" parent="1" vertex="1">
          <mxGeometry x="10" y="810" width="200" height="100" as="geometry" />
        </mxCell>
        <mxCell id="uvaL3Q8KecOu17S8fbjV-20" style="edgeStyle=orthogonalEdgeStyle;rounded=0;orthogonalLoop=1;jettySize=auto;html=1;exitX=0.5;exitY=1;exitDx=0;exitDy=0;entryX=0;entryY=0.5;entryDx=0;entryDy=0;" parent="1" source="uvaL3Q8KecOu17S8fbjV-14" target="uvaL3Q8KecOu17S8fbjV-17" edge="1">
          <mxGeometry relative="1" as="geometry" />
        </mxCell>
        <mxCell id="uvaL3Q8KecOu17S8fbjV-23" value="Option 1" style="edgeLabel;html=1;align=center;verticalAlign=middle;resizable=0;points=[];" parent="uvaL3Q8KecOu17S8fbjV-20" vertex="1" connectable="0">
          <mxGeometry x="-0.3667" y="-3" relative="1" as="geometry">
            <mxPoint as="offset" />
          </mxGeometry>
        </mxCell>
        <mxCell id="uvaL3Q8KecOu17S8fbjV-21" style="edgeStyle=orthogonalEdgeStyle;rounded=0;orthogonalLoop=1;jettySize=auto;html=1;exitX=0.25;exitY=1;exitDx=0;exitDy=0;entryX=0;entryY=0.5;entryDx=0;entryDy=0;" parent="1" source="uvaL3Q8KecOu17S8fbjV-14" target="uvaL3Q8KecOu17S8fbjV-18" edge="1">
          <mxGeometry relative="1" as="geometry" />
        </mxCell>
        <mxCell id="uvaL3Q8KecOu17S8fbjV-24" value="Option 2" style="edgeLabel;html=1;align=center;verticalAlign=middle;resizable=0;points=[];" parent="uvaL3Q8KecOu17S8fbjV-21" vertex="1" connectable="0">
          <mxGeometry x="-0.0182" y="-2" relative="1" as="geometry">
            <mxPoint y="-12" as="offset" />
          </mxGeometry>
        </mxCell>
        <mxCell id="uvaL3Q8KecOu17S8fbjV-22" style="edgeStyle=orthogonalEdgeStyle;rounded=0;orthogonalLoop=1;jettySize=auto;html=1;exitX=0;exitY=0.5;exitDx=0;exitDy=0;entryX=0;entryY=0.5;entryDx=0;entryDy=0;" parent="1" source="uvaL3Q8KecOu17S8fbjV-14" target="uvaL3Q8KecOu17S8fbjV-19" edge="1">
          <mxGeometry relative="1" as="geometry" />
        </mxCell>
        <mxCell id="uvaL3Q8KecOu17S8fbjV-25" value="Option 3" style="edgeLabel;html=1;align=center;verticalAlign=middle;resizable=0;points=[];" parent="uvaL3Q8KecOu17S8fbjV-22" vertex="1" connectable="0">
          <mxGeometry x="-0.2778" y="-1" relative="1" as="geometry">
            <mxPoint as="offset" />
          </mxGeometry>
        </mxCell>
        <mxCell id="uvaL3Q8KecOu17S8fbjV-14" value="Setting Menu" style="rounded=0;whiteSpace=wrap;html=1;" parent="1" vertex="1">
          <mxGeometry x="340" y="430" width="200" height="100" as="geometry" />
        </mxCell>
        <mxCell id="uvaL3Q8KecOu17S8fbjV-27" style="edgeStyle=orthogonalEdgeStyle;rounded=0;orthogonalLoop=1;jettySize=auto;html=1;exitX=1;exitY=0.5;exitDx=0;exitDy=0;entryX=0;entryY=0.25;entryDx=0;entryDy=0;" parent="1" source="uvaL3Q8KecOu17S8fbjV-17" target="uvaL3Q8KecOu17S8fbjV-26" edge="1">
          <mxGeometry relative="1" as="geometry" />
        </mxCell>
        <mxCell id="uvaL3Q8KecOu17S8fbjV-17" value="Category Menu" style="rounded=0;whiteSpace=wrap;html=1;" parent="1" vertex="1">
          <mxGeometry x="470" y="570" width="200" height="100" as="geometry" />
        </mxCell>
        <mxCell id="uvaL3Q8KecOu17S8fbjV-28" style="edgeStyle=orthogonalEdgeStyle;rounded=0;orthogonalLoop=1;jettySize=auto;html=1;exitX=1;exitY=0.5;exitDx=0;exitDy=0;entryX=0;entryY=0.5;entryDx=0;entryDy=0;" parent="1" source="uvaL3Q8KecOu17S8fbjV-18" target="uvaL3Q8KecOu17S8fbjV-26" edge="1">
          <mxGeometry relative="1" as="geometry" />
        </mxCell>
        <mxCell id="uvaL3Q8KecOu17S8fbjV-18" value="Level Menu" style="rounded=0;whiteSpace=wrap;html=1;" parent="1" vertex="1">
          <mxGeometry x="470" y="730" width="200" height="100" as="geometry" />
        </mxCell>
        <mxCell id="uvaL3Q8KecOu17S8fbjV-29" style="edgeStyle=orthogonalEdgeStyle;rounded=0;orthogonalLoop=1;jettySize=auto;html=1;exitX=1;exitY=0.5;exitDx=0;exitDy=0;entryX=0;entryY=0.75;entryDx=0;entryDy=0;" parent="1" source="uvaL3Q8KecOu17S8fbjV-19" target="uvaL3Q8KecOu17S8fbjV-26" edge="1">
          <mxGeometry relative="1" as="geometry" />
        </mxCell>
        <mxCell id="uvaL3Q8KecOu17S8fbjV-19" value="No of Questions" style="rounded=0;whiteSpace=wrap;html=1;" parent="1" vertex="1">
          <mxGeometry x="470" y="890" width="200" height="100" as="geometry" />
        </mxCell>
        <mxCell id="uvaL3Q8KecOu17S8fbjV-30" style="edgeStyle=orthogonalEdgeStyle;rounded=0;orthogonalLoop=1;jettySize=auto;html=1;exitX=1;exitY=0.5;exitDx=0;exitDy=0;entryX=1;entryY=0.5;entryDx=0;entryDy=0;" parent="1" source="uvaL3Q8KecOu17S8fbjV-26" target="uvaL3Q8KecOu17S8fbjV-4" edge="1">
          <mxGeometry relative="1" as="geometry" />
        </mxCell>
        <mxCell id="uvaL3Q8KecOu17S8fbjV-26" value="Back" style="triangle;whiteSpace=wrap;html=1;rotation=-90;" parent="1" vertex="1">
          <mxGeometry x="700" y="390" width="60" height="80" as="geometry" />
        </mxCell>
        <mxCell id="1X_Ou-ZfoOHERnp9HSPD-8" style="edgeStyle=orthogonalEdgeStyle;rounded=0;orthogonalLoop=1;jettySize=auto;html=1;exitX=0.75;exitY=1;exitDx=0;exitDy=0;entryX=0;entryY=0.5;entryDx=0;entryDy=0;" parent="1" source="1X_Ou-ZfoOHERnp9HSPD-3" target="1X_Ou-ZfoOHERnp9HSPD-4" edge="1">
          <mxGeometry relative="1" as="geometry" />
        </mxCell>
        <mxCell id="zbMMT1QUqGmM2TdmFMBa-3" style="edgeStyle=orthogonalEdgeStyle;rounded=0;orthogonalLoop=1;jettySize=auto;html=1;exitX=0.5;exitY=1;exitDx=0;exitDy=0;entryX=1;entryY=0.5;entryDx=0;entryDy=0;" edge="1" parent="1" source="1X_Ou-ZfoOHERnp9HSPD-3" target="zbMMT1QUqGmM2TdmFMBa-1">
          <mxGeometry relative="1" as="geometry" />
        </mxCell>
        <mxCell id="1X_Ou-ZfoOHERnp9HSPD-3" value="Math SubFields" style="rounded=0;whiteSpace=wrap;html=1;" parent="1" vertex="1">
          <mxGeometry x="310" y="20" width="200" height="100" as="geometry" />
        </mxCell>
        <mxCell id="zbMMT1QUqGmM2TdmFMBa-4" style="edgeStyle=orthogonalEdgeStyle;rounded=0;orthogonalLoop=1;jettySize=auto;html=1;exitX=0.5;exitY=1;exitDx=0;exitDy=0;entryX=1;entryY=0.25;entryDx=0;entryDy=0;" edge="1" parent="1" source="1X_Ou-ZfoOHERnp9HSPD-4" target="uvaL3Q8KecOu17S8fbjV-4">
          <mxGeometry relative="1" as="geometry">
            <Array as="points">
              <mxPoint x="660" y="280" />
              <mxPoint x="540" y="280" />
            </Array>
          </mxGeometry>
        </mxCell>
        <mxCell id="1X_Ou-ZfoOHERnp9HSPD-4" value="Short Answer" style="rounded=0;whiteSpace=wrap;html=1;" parent="1" vertex="1">
          <mxGeometry x="560" y="150" width="200" height="100" as="geometry" />
        </mxCell>
        <mxCell id="zbMMT1QUqGmM2TdmFMBa-5" style="edgeStyle=orthogonalEdgeStyle;rounded=0;orthogonalLoop=1;jettySize=auto;html=1;exitX=0.5;exitY=1;exitDx=0;exitDy=0;entryX=0;entryY=0.25;entryDx=0;entryDy=0;" edge="1" parent="1" source="zbMMT1QUqGmM2TdmFMBa-1" target="uvaL3Q8KecOu17S8fbjV-4">
          <mxGeometry relative="1" as="geometry" />
        </mxCell>
        <mxCell id="zbMMT1QUqGmM2TdmFMBa-1" value="Multiple Choice" style="rounded=0;whiteSpace=wrap;html=1;" vertex="1" parent="1">
          <mxGeometry x="120" y="150" width="200" height="100" as="geometry" />
        </mxCell>
      </root>
    </mxGraphModel>
  </diagram>
</mxfile>
